<svg width="491.52" height="491.52" xmlns="http://www.w3.org/2000/svg">

 <g>
  <title>background</title>
  <rect fill="none" id="canvas_background" height="1202" width="1602" y="-1" x="-1"/>
 </g>
 <g>
  <title>Layer 1</title>
  <g id="svg_1">
   <path id="svg_2" fill="#31978C" d="m455.593,314.762c-2.902,0 -5.85,-0.59 -8.652,-1.841c-7.178,-3.199 -12.68,-9.991 -15.497,-19.125c-3.458,-11.272 -2.115,-23.694 3.18,-34.117c-6.182,-4.036 -12.889,-7.521 -19.457,-10.932l-20.661,-10.732c-5.341,-2.767 -6.807,-2.4 -6.954,-2.339c-3.643,2.412 -8.536,1.382 -10.936,-2.269c-2.392,-3.647 -1.374,-8.551 2.277,-10.948c8.806,-5.785 19.032,-0.471 22.899,1.528l20.661,10.732c7.27,3.778 14.695,7.633 21.726,12.318c7.208,-6.599 15.775,-10.276 24.056,-13.834c4.106,-1.76 7.988,-3.427 11.6,-5.395c3.851,-2.095 8.636,-0.671 10.72,3.157c2.092,3.836 0.671,8.632 -3.157,10.72c-4.26,2.323 -8.667,4.214 -12.927,6.043c-6.498,2.794 -12.68,5.449 -17.643,9.304c10.936,10.446 17.396,23.076 18.245,35.761c0.185,2.805 0.224,7.023 -1.682,11.202c-3.057,6.758 -10.235,10.767 -17.798,10.767zm-8.212,-44.844c-2.323,6.143 -2.724,13.043 -0.826,19.237c1.428,4.631 3.913,8.034 6.823,9.331c2.138,0.953 5.071,0.212 5.619,-1.019c0.224,-0.482 0.448,-1.49 0.301,-3.612c-0.696,-10.377 -6.932,-18.79 -11.917,-23.937z"/>
   <path id="svg_3" fill="#31978C" d="m99.589,172.512l0,-106.839c0,0 70.679,27.413 62.049,106.839"/>
  </g>
  <g id="svg_4">
   <path id="svg_5" fill="#3EA69B" d="m165.92,464.685l-48.352,0c-2.865,0 -5.188,-2.323 -5.188,-5.188l0,-77.809l58.729,0l0,77.809c-0.001,2.866 -2.324,5.188 -5.189,5.188z"/>
   <path id="svg_6" fill="#3EA69B" d="m324.633,464.685l-48.352,0c-2.865,0 -5.188,-2.323 -5.188,-5.188l0,-77.809l58.729,0l0,77.809c0,2.866 -2.323,5.188 -5.189,5.188z"/>
  </g>
  <path id="svg_7" fill="#81f9d7" d="m222.131,117.824c-89.068,0 -163.969,50.914 -185.888,120.018l-22.305,0c-7.698,-0.001 -13.938,6.239 -13.938,13.936l0,55.749c0,7.697 6.24,13.937 13.938,13.937l22.305,0c21.919,69.104 96.82,120.018 185.888,120.018c106.265,0 192.409,-72.453 192.409,-161.829s-86.144,-161.829 -192.409,-161.829z"/>
  <path id="svg_8" fill="#3EA69B" d="m79.695,192.406l0,-106.838c0,0 70.679,27.413 62.049,106.839"/>
  <ellipse id="svg_9" fill="#EBF0F3" ry="28.708" rx="15.969" cy="242.279" cx="89.702"/>
  <ellipse id="svg_10" fill="#64798A" ry="12.201" rx="6.784" cy="242.279" cx="89.702"/>
  <ellipse id="svg_11" fill="#FFFFFF" ry="4.485" rx="2.493" cy="234.589" cx="93.993"/>
  <rect id="svg_12" fill="#31978C" height="11.208" width="152.417" y="169.217" x="169.626"/>
  <circle id="svg_13" fill="#FCD462" r="74.542" cy="101.377" cx="245.862"/>
  <circle id="svg_14" fill="#F6C358" r="62.106" cy="101.377" cx="245.862"/>
  <path id="svg_15" fill="#DC8744" d="m243.277,149.708l0,-8.512c-10.656,-1.087 -20.221,-5.323 -28.686,-12.706l8.512,-10.144c6.529,5.675 13.247,9.053 20.174,10.144l0,-22.622c-8.787,-2.097 -15.221,-4.858 -19.301,-8.279c-4.08,-3.421 -6.121,-8.493 -6.121,-15.216c0,-6.723 2.344,-12.222 7.05,-16.502c4.707,-4.275 10.827,-6.604 18.371,-6.994l0,-5.831l7.458,0l0,5.945c8.55,0.626 16.635,3.539 24.254,8.749l-7.582,10.728c-5.134,-3.653 -10.685,-5.907 -16.672,-6.766l0,21.92l0.351,0c8.939,2.102 15.505,4.939 19.7,8.512c4.204,3.577 6.301,8.768 6.301,15.567c0,6.804 -2.41,12.345 -7.231,16.616c-4.82,4.28 -11.188,6.609 -19.121,6.998l0,8.393l-7.457,0zm-8.227,-75.264c-1.983,1.746 -2.97,3.924 -2.97,6.529c0,2.605 0.778,4.664 2.334,6.177c1.547,1.518 4.507,2.975 8.863,4.375l0,-20.174c-3.501,0.313 -6.244,1.342 -8.227,3.093zm24.548,51.128c2.173,-1.784 3.264,-4.038 3.264,-6.761c0,-2.719 -0.854,-4.877 -2.562,-6.472c-1.718,-1.594 -4.906,-3.089 -9.565,-4.488l0,20.985c3.73,-0.384 6.681,-1.475 8.863,-3.264z"/>
  <g id="svg_16"/>
  <g id="svg_17"/>
  <g id="svg_18"/>
  <g id="svg_19"/>
  <g id="svg_20"/>
  <g id="svg_21"/>
  <g id="svg_22"/>
  <g id="svg_23"/>
  <g id="svg_24"/>
  <g id="svg_25"/>
  <g id="svg_26"/>
  <g id="svg_27"/>
  <g id="svg_28"/>
  <g id="svg_29"/>
  <g id="svg_30"/>
 </g>
</svg>