<?xml version="1.0" encoding="iso-8859-1"?>
<!-- Generator: Adobe Illustrator 19.0.0, SVG Export Plug-In . SVG Version: 6.00 Build 0)  -->
<svg version="1.1" id="Layer_1" xmlns="http://www.w3.org/2000/svg" xmlns:xlink="http://www.w3.org/1999/xlink" x="0px" y="0px"
	 viewBox="0 0 491.52 491.52" style="enable-background:new 0 0 491.52 491.52;" xml:space="preserve">
<g>
	<path style="fill:#31978C;" d="M455.593,314.762c-2.902,0-5.85-0.59-8.652-1.841c-7.178-3.199-12.68-9.991-15.497-19.125
		c-3.458-11.272-2.115-23.694,3.18-34.117c-6.182-4.036-12.889-7.521-19.457-10.932l-20.661-10.732
		c-5.341-2.767-6.807-2.4-6.954-2.339c-3.643,2.412-8.536,1.382-10.936-2.269c-2.392-3.647-1.374-8.551,2.277-10.948
		c8.806-5.785,19.032-0.471,22.899,1.528l20.661,10.732c7.27,3.778,14.695,7.633,21.726,12.318
		c7.208-6.599,15.775-10.276,24.056-13.834c4.106-1.76,7.988-3.427,11.6-5.395c3.851-2.095,8.636-0.671,10.72,3.157
		c2.092,3.836,0.671,8.632-3.157,10.72c-4.26,2.323-8.667,4.214-12.927,6.043c-6.498,2.794-12.68,5.449-17.643,9.304
		c10.936,10.446,17.396,23.076,18.245,35.761c0.185,2.805,0.224,7.023-1.682,11.202
		C470.334,310.753,463.156,314.762,455.593,314.762z M447.381,269.918c-2.323,6.143-2.724,13.043-0.826,19.237
		c1.428,4.631,3.913,8.034,6.823,9.331c2.138,0.953,5.071,0.212,5.619-1.019c0.224-0.482,0.448-1.49,0.301-3.612
		C458.602,283.478,452.366,275.065,447.381,269.918z"/>
	<path style="fill:#31978C;" d="M99.589,172.512V65.673c0,0,70.679,27.413,62.049,106.839"/>
</g>
<g>
	<path style="fill:#3EA69B;" d="M165.92,464.685h-48.352c-2.865,0-5.188-2.323-5.188-5.188v-77.809h58.729v77.809
		C171.108,462.363,168.785,464.685,165.92,464.685z"/>
	<path style="fill:#3EA69B;" d="M324.633,464.685h-48.352c-2.865,0-5.188-2.323-5.188-5.188v-77.809h58.729v77.809
		C329.822,462.363,327.499,464.685,324.633,464.685z"/>
</g>
<path style="fill:#44C4A1;" d="M222.131,117.824c-89.068,0-163.969,50.914-185.888,120.018H13.938C6.24,237.841,0,244.081,0,251.778
	v55.749c0,7.697,6.24,13.937,13.938,13.937h22.305c21.919,69.104,96.82,120.018,185.888,120.018
	c106.265,0,192.409-72.453,192.409-161.829S328.396,117.824,222.131,117.824z"/>
<path style="fill:#3EA69B;" d="M79.695,192.406V85.568c0,0,70.679,27.413,62.049,106.839"/>
<ellipse style="fill:#EBF0F3;" cx="89.702" cy="242.279" rx="15.969" ry="28.708"/>
<ellipse style="fill:#64798A;" cx="89.702" cy="242.279" rx="6.784" ry="12.201"/>
<ellipse style="fill:#FFFFFF;" cx="93.993" cy="234.589" rx="2.493" ry="4.485"/>
<rect x="169.626" y="169.217" style="fill:#31978C;" width="152.417" height="11.208"/>
<circle style="fill:#FCD462;" cx="245.862" cy="101.377" r="74.542"/>
<circle style="fill:#F6C358;" cx="245.862" cy="101.377" r="62.106"/>
<path style="fill:#DC8744;" d="M243.277,149.708v-8.512c-10.656-1.087-20.221-5.323-28.686-12.706l8.512-10.144
	c6.529,5.675,13.247,9.053,20.174,10.144v-22.622c-8.787-2.097-15.221-4.858-19.301-8.279c-4.08-3.421-6.121-8.493-6.121-15.216
	c0-6.723,2.344-12.222,7.05-16.502c4.707-4.275,10.827-6.604,18.371-6.994v-5.831h7.458v5.945c8.55,0.626,16.635,3.539,24.254,8.749
	l-7.582,10.728c-5.134-3.653-10.685-5.907-16.672-6.766v21.92h0.351c8.939,2.102,15.505,4.939,19.7,8.512
	c4.204,3.577,6.301,8.768,6.301,15.567c0,6.804-2.41,12.345-7.231,16.616c-4.82,4.28-11.188,6.609-19.121,6.998v8.393H243.277z
	 M235.05,74.444c-1.983,1.746-2.97,3.924-2.97,6.529c0,2.605,0.778,4.664,2.334,6.177c1.547,1.518,4.507,2.975,8.863,4.375V71.351
	C239.776,71.664,237.033,72.693,235.05,74.444z M259.598,125.572c2.173-1.784,3.264-4.038,3.264-6.761
	c0-2.719-0.854-4.877-2.562-6.472c-1.718-1.594-4.906-3.089-9.565-4.488v20.985C254.465,128.452,257.416,127.361,259.598,125.572z"
	/>
<g>
</g>
<g>
</g>
<g>
</g>
<g>
</g>
<g>
</g>
<g>
</g>
<g>
</g>
<g>
</g>
<g>
</g>
<g>
</g>
<g>
</g>
<g>
</g>
<g>
</g>
<g>
</g>
<g>
</g>
</svg>
